<svg xmlns="http://www.w3.org/2000/svg" xmlns:xlink="http://www.w3.org/1999/xlink" width="1080" zoomAndPan="magnify" viewBox="0 0 810 809.999993" height="1080" preserveAspectRatio="xMidYMid meet" version="1.0"><defs><clipPath id="dc18f1adc5"><path d="M 107 127 L 744 127 L 744 691.628906 L 107 691.628906 Z M 107 127 " clip-rule="nonzero"/></clipPath><clipPath id="677ea3627c"><path d="M 122 127 L 712 127 L 712 691.628906 L 122 691.628906 Z M 122 127 " clip-rule="nonzero"/></clipPath><clipPath id="2f867e4b3a"><path d="M 107 131 L 743 131 L 743 691.628906 L 107 691.628906 Z M 107 131 " clip-rule="nonzero"/></clipPath><clipPath id="ceb0f4b274"><path d="M 107 130 L 746 130 L 746 691.628906 L 107 691.628906 Z M 107 130 " clip-rule="nonzero"/></clipPath><clipPath id="9fccb22822"><path d="M 18 120 L 751 120 L 751 691.628906 L 18 691.628906 Z M 18 120 " clip-rule="nonzero"/></clipPath></defs><g clip-path="url(#dc18f1adc5)"><path fill="#ffffff" d="M 165.371094 691.222656 C 165.371094 691.222656 161.78125 691.222656 157.441406 667.425781 C 152.054688 637.640625 164.175781 582.5625 165.972656 578.222656 C 153.550781 568.792969 105.074219 523.59375 107.464844 461.03125 C 109.859375 398.46875 156.695312 335.308594 156.695312 335.308594 C 156.695312 335.308594 163.726562 202.554688 234.050781 127.269531 C 259.636719 129.8125 331.90625 192.078125 345.074219 203.75 C 378.292969 193.574219 473.15625 194.921875 508.320312 203.453125 C 508.320312 203.453125 556.351562 148.375 622.785156 130.414062 C 634.007812 134.453125 709.570312 261.074219 695.503906 336.65625 C 718.097656 357.3125 795.453125 474.652344 689.21875 583.910156 C 709.570312 640.933594 696.699219 691.371094 696.699219 691.371094 Z M 165.371094 691.222656 C 165.371094 691.222656 157.441406 687.183594 155.347656 672.8125 C 150.707031 641.234375 163.875 583.761719 165.972656 578.371094 C 153.550781 568.945312 105.074219 523.742188 107.464844 461.183594 C 109.859375 398.621094 156.695312 335.460938 156.695312 335.460938 C 156.695312 335.460938 160.734375 205.695312 231.058594 130.414062 C 256.644531 132.957031 331.90625 192.226562 345.074219 203.902344 C 378.292969 193.722656 473.15625 195.070312 508.320312 203.601562 C 508.320312 203.601562 552.308594 148.523438 618.59375 130.5625 C 629.816406 134.605469 709.417969 261.222656 695.355469 336.808594 C 717.949219 357.460938 795.304688 474.800781 689.070312 584.058594 C 709.417969 641.082031 695.203125 691.523438 695.203125 691.523438 L 165.371094 691.523438 Z M 165.371094 691.222656 " fill-opacity="1" fill-rule="nonzero"/></g><g clip-path="url(#677ea3627c)"><path fill="#efb07d" d="M 389.664062 198.8125 C 389.664062 198.8125 477.496094 296.546875 363.480469 386.644531 C 249.464844 476.746094 104.921875 431.246094 124.523438 392.484375 C 124.523438 392.484375 143.527344 344.289062 161.332031 333.066406 C 150.410156 304.179688 176.144531 223.507812 199.636719 175.761719 C 199.636719 175.761719 223.277344 130.5625 234.050781 127.417969 C 244.824219 124.277344 314.402344 172.769531 342.53125 198.511719 C 360.488281 200.757812 389.664062 198.8125 389.664062 198.8125 Z M 647.773438 691.222656 C 647.773438 691.222656 689.96875 679.847656 711.066406 640.785156 C 686.078125 579.121094 658.996094 494.707031 635.953125 478.84375 C 612.910156 462.976562 606.625 476.449219 597.199219 490.667969 C 588.519531 474.652344 563.082031 462.378906 555.152344 490.667969 C 545.277344 477.347656 515.5 475.398438 516.699219 523.445312 C 518.042969 571.488281 544.082031 691.222656 544.082031 691.222656 Z M 647.773438 691.222656 " fill-opacity="1" fill-rule="nonzero"/></g><g clip-path="url(#2f867e4b3a)"><path fill="#ef5454" d="M 229.261719 254.9375 C 229.261719 254.9375 207.71875 288.015625 190.210938 317.949219 C 189.761719 215.125 240.636719 170.375 240.636719 170.375 C 227.617188 198.214844 229.261719 254.9375 229.261719 254.9375 Z M 623.832031 254.9375 C 623.832031 254.9375 643.285156 288.015625 660.9375 317.949219 C 661.386719 215.125 610.515625 170.375 610.515625 170.375 C 623.53125 198.214844 623.832031 254.9375 623.832031 254.9375 Z M 190.210938 522.246094 C 106.417969 457.140625 139.1875 366.292969 139.1875 366.292969 C 93.101562 415.832031 97.441406 520.449219 151.15625 572.984375 C 155.046875 576.726562 159.238281 580.316406 163.875 583.609375 C 171.804688 564.453125 182.730469 539.457031 190.210938 522.246094 Z M 325.625 602.617188 L 320.984375 632.105469 C 350.011719 634.648438 375.449219 634.050781 391.160156 630.605469 C 376.945312 624.171875 353.753906 615.492188 325.625 602.617188 Z M 530.613281 599.773438 C 499.640625 614.144531 474.054688 623.722656 458.792969 630.605469 C 475.25 634.199219 502.335938 634.796875 532.859375 631.804688 Z M 710.914062 366.292969 C 710.914062 366.292969 743.234375 455.941406 661.386719 520.898438 C 668.269531 537.664062 679.792969 565.203125 687.871094 582.265625 C 691.761719 579.269531 695.503906 576.128906 698.796875 572.984375 C 752.660156 520.449219 757 415.832031 710.914062 366.292969 Z M 617.25 478.992188 C 617.25 478.992188 642.234375 507.128906 650.015625 583.761719 C 657.796875 660.390625 631.3125 691.222656 631.3125 691.222656 L 710.914062 691.222656 C 710.914062 691.222656 720.339844 675.207031 712.410156 650.960938 C 704.628906 626.714844 655.554688 493.359375 631.164062 478.84375 C 606.925781 464.324219 617.25 478.992188 617.25 478.992188 Z M 218.042969 478.691406 C 193.652344 493.210938 144.574219 626.714844 136.792969 650.8125 C 129.011719 675.058594 138.289062 691.074219 138.289062 691.074219 L 217.890625 691.074219 C 217.890625 691.074219 191.257812 660.089844 199.1875 583.609375 C 206.96875 506.980469 231.957031 478.84375 231.957031 478.84375 C 231.957031 478.84375 242.429688 464.324219 218.042969 478.691406 Z M 456.398438 528.683594 C 456.398438 528.683594 435.300781 539.757812 404.925781 528.683594 C 419.589844 557.417969 447.71875 551.582031 456.398438 528.683594 Z M 543.632812 213.328125 C 543.632812 213.328125 586.273438 155.257812 621.4375 135.5 C 622.785156 130.414062 603.929688 126.222656 573.558594 149.71875 C 543.183594 173.21875 508.320312 203.601562 508.320312 203.601562 Z M 345.375 203.601562 C 345.375 203.601562 310.511719 173.21875 280.136719 149.71875 C 249.761719 126.222656 230.910156 130.414062 232.257812 135.5 C 267.417969 155.257812 310.0625 213.328125 310.0625 213.328125 Z M 345.375 203.601562 " fill-opacity="0.3" fill-rule="nonzero"/></g><g clip-path="url(#ceb0f4b274)"><path fill="#ffffff" d="M 230.910156 130.414062 C 230.910156 130.414062 177.042969 230.390625 180.785156 340.996094 C 148.765625 366.441406 132.003906 392.484375 114.949219 436.1875 C 114.347656 409.695312 130.210938 379.460938 156.542969 335.460938 C 160.585938 279.183594 194.101562 164.539062 230.910156 130.414062 Z M 157.890625 577.625 C 157.890625 577.625 163.425781 578.222656 167.765625 558.316406 C 113.601562 503.988281 114.050781 438.882812 114.050781 438.882812 C 85.769531 501.144531 157.890625 577.625 157.890625 577.625 Z M 146.667969 691.222656 C 150.410156 691.222656 158.789062 691.222656 165.371094 691.222656 C 143.078125 663.382812 167.765625 594.835938 167.765625 594.835938 C 125.121094 650.960938 136.496094 691.222656 146.667969 691.222656 Z M 686.375 594.835938 C 686.375 594.835938 710.914062 663.382812 688.769531 691.222656 C 696.402344 691.222656 702.535156 691.222656 706.425781 691.222656 C 713.90625 688.828125 715.105469 688.527344 715.105469 688.527344 C 715.105469 688.527344 729.019531 650.960938 686.375 594.835938 Z M 738.445312 439.03125 C 738.445312 439.03125 738.894531 504.136719 684.730469 558.464844 C 689.070312 578.371094 695.652344 584.210938 695.652344 584.210938 C 695.652344 584.210938 766.726562 501.144531 738.445312 439.03125 Z M 738.445312 439.03125 " fill-opacity="1" fill-rule="nonzero"/></g><g clip-path="url(#9fccb22822)"><path fill="#2b0806" d="M 578.046875 302.082031 C 557.398438 303.132812 491.113281 327.527344 491.410156 335.160156 C 492.007812 349.230469 540.191406 367.636719 574.304688 381.707031 C 608.421875 395.777344 601.386719 376.769531 583.582031 365.394531 C 590.015625 369.136719 602.734375 366.742188 593.007812 357.761719 C 586.273438 351.625 545.128906 335.011719 545.128906 335.011719 C 545.128906 335.011719 567.273438 329.621094 582.984375 325.28125 C 597.796875 321.242188 595.253906 314.804688 581.039062 315.554688 C 587.921875 313.457031 596 301.183594 578.046875 302.082031 Z M 478.394531 366.140625 C 473.90625 375.421875 464.03125 383.355469 454.304688 379.613281 C 444.578125 375.871094 437.695312 360.15625 426.621094 360.15625 C 415.550781 360.15625 408.816406 375.871094 398.941406 379.613281 C 389.214844 383.355469 379.339844 375.421875 374.851562 366.140625 C 361.234375 373.476562 338.640625 393.082031 340.136719 432.296875 C 341.632812 471.507812 369.164062 502.339844 426.621094 502.339844 C 483.929688 502.339844 511.609375 471.359375 513.105469 432.296875 C 514.453125 393.082031 491.859375 373.476562 478.394531 366.140625 Z M 278.941406 381.707031 C 313.054688 367.636719 361.234375 349.230469 361.832031 335.160156 C 362.132812 327.527344 295.699219 303.132812 275.199219 302.082031 C 257.242188 301.183594 265.324219 313.457031 272.355469 315.703125 C 258.140625 314.804688 255.597656 321.390625 270.410156 325.433594 C 286.121094 329.773438 308.265625 335.160156 308.265625 335.160156 C 308.265625 335.160156 267.121094 351.773438 260.386719 357.910156 C 250.660156 366.890625 263.378906 369.285156 269.8125 365.542969 C 251.855469 376.769531 244.824219 395.777344 278.941406 381.707031 Z M 610.664062 170.226562 C 610.664062 170.226562 623.53125 224.105469 616.5 268.40625 C 626.972656 272.898438 660.941406 317.949219 660.941406 317.949219 C 660.941406 317.949219 655.105469 287.714844 631.015625 261.972656 C 636.402344 232.636719 626.972656 185.492188 610.664062 170.226562 Z M 695.652344 584.058594 C 796.949219 485.277344 733.957031 377.066406 702.6875 336.359375 C 699.242188 203.75 634.753906 118.738281 618.445312 120.683594 C 563.234375 135.5 509.964844 189.683594 502.335938 197.765625 C 470.464844 189.382812 441.136719 188.484375 426.621094 188.785156 C 412.109375 188.632812 382.78125 189.382812 350.910156 197.765625 C 343.128906 189.683594 290.011719 135.5 234.800781 120.683594 C 218.339844 118.738281 154 203.75 150.558594 336.359375 C 119.4375 376.917969 56.445312 485.128906 157.589844 584.058594 L 157.441406 584.507812 C 150.109375 602.167969 142.777344 620.429688 136.046875 637.941406 C 133.652344 644.375 124.375 671.019531 127.066406 691.222656 C 131.855469 691.222656 146.21875 691.222656 146.820312 691.222656 C 140.234375 684.1875 146.667969 655.003906 149.8125 645.722656 C 161.03125 612.347656 177.191406 568.792969 188.714844 542.601562 C 209.0625 496.054688 225.523438 476 241.234375 479.140625 C 251.257812 481.085938 257.394531 501.144531 257.394531 501.144531 C 257.394531 501.144531 269.214844 478.992188 282.980469 481.238281 C 294.050781 483.035156 293.453125 495.007812 292.855469 506.230469 C 301.683594 486.027344 325.175781 480.636719 329.664062 507.578125 C 332.65625 525.839844 304.226562 667.277344 301.683594 691.222656 C 301.683594 691.222656 312.15625 691.222656 318.589844 691.222656 C 320.085938 675.957031 332.355469 595.585938 336.695312 563.703125 C 341.335938 529.28125 344.476562 512.367188 338.941406 497.101562 C 327.71875 466.269531 304.375 475.398438 299.738281 484.828125 C 302.429688 462.828125 272.953125 459.234375 259.9375 481.535156 C 253.203125 455.644531 223.578125 452.949219 198.589844 496.503906 C 189.011719 513.265625 176.445312 540.207031 163.578125 570.441406 C 140.683594 548.589844 63.625 461.332031 163.726562 338.304688 C 163.726562 307.023438 178.6875 205.847656 232.105469 135.5 C 241.085938 131.011719 288.515625 157.800781 336.847656 202.253906 C 327.867188 205.246094 318.742188 208.839844 309.914062 213.328125 C 313.203125 217.222656 358.242188 202.703125 426.773438 202.703125 C 495.300781 202.703125 540.339844 217.222656 543.632812 213.328125 C 534.804688 208.839844 525.675781 205.246094 516.699219 202.253906 C 565.027344 157.800781 612.609375 131.011719 621.4375 135.5 C 674.855469 205.847656 689.816406 307.171875 689.816406 338.304688 C 789.917969 461.332031 712.859375 548.589844 689.96875 570.441406 C 677.097656 540.355469 664.53125 513.265625 654.953125 496.503906 C 629.964844 453.097656 600.339844 455.792969 593.605469 481.535156 C 580.589844 459.234375 551.113281 462.828125 553.804688 484.828125 C 549.019531 475.550781 525.824219 466.269531 514.605469 497.101562 C 509.066406 512.367188 512.058594 529.28125 516.847656 563.703125 C 521.1875 595.585938 533.457031 675.957031 534.953125 691.222656 C 541.238281 691.222656 551.859375 691.222656 551.859375 691.222656 C 549.464844 667.277344 520.886719 525.988281 523.878906 507.578125 C 528.371094 480.488281 551.710938 485.878906 560.6875 506.230469 C 559.941406 495.007812 559.34375 483.035156 570.5625 481.238281 C 584.328125 478.992188 596.152344 501.144531 596.152344 501.144531 C 596.152344 501.144531 602.285156 481.085938 612.308594 479.140625 C 628.019531 476 644.332031 496.054688 664.828125 542.601562 C 676.351562 568.792969 692.511719 612.347656 703.734375 645.722656 C 706.875 655.003906 713.308594 684.1875 706.726562 691.222656 C 707.324219 691.222656 721.6875 691.222656 726.476562 691.222656 C 729.167969 671.019531 719.894531 644.375 717.5 637.941406 C 710.464844 620.28125 702.984375 601.871094 695.652344 584.058594 Z M 132.15625 277.089844 C 112.402344 260.027344 92.804688 242.964844 73.203125 225.902344 C 68.5625 221.859375 55.546875 228.746094 61.828125 234.132812 C 81.429688 251.195312 101.03125 268.257812 120.632812 285.320312 C 125.421875 289.363281 138.289062 282.476562 132.15625 277.089844 Z M 111.804688 302.082031 C 84.722656 293.402344 57.640625 284.871094 30.558594 276.191406 C 24.273438 274.246094 13.199219 283.226562 22.027344 286.070312 C 49.113281 294.75 76.195312 303.28125 103.277344 311.960938 C 109.5625 313.90625 120.632812 304.777344 111.804688 302.082031 Z M 105.371094 333.363281 C 87.117188 338.152344 69.011719 343.09375 50.757812 347.882812 C 41.78125 350.277344 44.023438 358.808594 53.003906 356.414062 C 71.257812 351.625 89.363281 346.683594 107.617188 341.894531 C 116.59375 339.5 114.347656 330.96875 105.371094 333.363281 Z M 219.988281 261.972656 C 196.046875 287.714844 190.0625 317.949219 190.0625 317.949219 C 190.0625 317.949219 224.027344 272.898438 234.5 268.40625 C 227.46875 224.105469 240.335938 170.226562 240.335938 170.226562 C 224.175781 185.492188 214.75 232.636719 219.988281 261.972656 Z M 219.988281 261.972656 " fill-opacity="1" fill-rule="nonzero"/></g><path fill="#ef5454" d="M 500.539062 414.933594 C 501.136719 419.125 501.4375 423.613281 501.136719 428.554688 C 499.789062 463.277344 475.402344 490.667969 424.527344 490.667969 C 402.832031 490.667969 386.074219 485.726562 373.804688 477.347656 C 413.15625 413.4375 482.285156 413.585938 500.539062 414.933594 Z M 500.539062 414.933594 C 501.136719 419.125 501.4375 423.613281 501.136719 428.554688 C 499.789062 463.277344 475.402344 490.667969 424.527344 490.667969 C 402.832031 490.667969 386.074219 485.726562 373.804688 477.347656 C 413.15625 413.4375 482.285156 413.585938 500.539062 414.933594 Z M 500.539062 414.933594 " fill-opacity="1" fill-rule="nonzero"/></svg>