<svg xmlns="http://www.w3.org/2000/svg" xmlns:xlink="http://www.w3.org/1999/xlink" width="1080" zoomAndPan="magnify" viewBox="0 0 810 1012.49997" height="1350" preserveAspectRatio="xMidYMid meet" version="1.0"><defs><clipPath id="005c145f5f"><path d="M 47 188 L 773 188 L 773 830.824219 L 47 830.824219 Z M 47 188 " clip-rule="nonzero"/></clipPath><clipPath id="8ea282f32f"><path d="M 52 210 L 771 210 L 771 830.824219 L 52 830.824219 Z M 52 210 " clip-rule="nonzero"/></clipPath><clipPath id="c49a5190dd"><path d="M 48 273 L 646 273 L 646 830.824219 L 48 830.824219 Z M 48 273 " clip-rule="nonzero"/></clipPath><clipPath id="25233a8499"><path d="M 37 180.894531 L 779.953125 180.894531 L 779.953125 830.824219 L 37 830.824219 Z M 37 180.894531 " clip-rule="nonzero"/></clipPath></defs><g clip-path="url(#005c145f5f)"><path fill="#ffffff" d="M 772.691406 780.089844 L 770.074219 830.746094 L 585.5625 830.746094 L 588.832031 780.089844 Z M 730.324219 558.035156 C 730.324219 558.035156 735.023438 475.296875 665.417969 389.59375 C 681.371094 310.398438 659.980469 204.296875 639.671875 188.683594 C 601.320312 190.921875 521.21875 218.976562 476.726562 289.5625 C 431.683594 273.53125 368.113281 269.292969 303.992188 285.285156 C 303.992188 285.285156 228.09375 205.605469 139.105469 188.683594 C 95.921875 220.167969 109.457031 373.582031 109.007812 392.863281 C 78.910156 446.492188 -34.9375 610.394531 152.191406 725.332031 C 127.328125 789.246094 117.4375 829.863281 117.4375 829.863281 L 578.800781 830.757812 C 578.800781 830.757812 587.328125 740.878906 596.492188 696.398438 C 605.652344 651.917969 614.175781 577.328125 633.761719 568.59375 C 653.347656 559.855469 668.65625 580.585938 668.65625 580.585938 C 668.65625 580.585938 690.800781 526.292969 708.082031 574.699219 C 703.117188 556.382812 730.324219 558.035156 730.324219 558.035156 Z M 730.324219 558.035156 " fill-opacity="1" fill-rule="nonzero"/></g><path fill="#efb07d" d="M 608.460938 627.027344 C 622.855469 554.417969 652.300781 561.613281 668.65625 580.585938 C 671.273438 558.34375 694.828125 551.148438 708.570312 568.808594 C 761.570312 516.480469 770.074219 671.738281 770.074219 671.738281 L 770.074219 772.238281 C 770.074219 772.238281 758.203125 810.832031 676.847656 810.832031 C 605.855469 810.832031 585.5625 779.433594 585.5625 779.433594 C 585.5625 779.433594 594.066406 699.632812 608.460938 627.027344 Z M 306.28125 286.234375 C 290.578125 262.742188 189.488281 180.894531 140.414062 188.769531 C 84.800781 252.871094 111.625 392.863281 111.625 392.863281 C 111.625 392.863281 65.695312 454.273438 60.230469 513.613281 C 61.996094 557.367188 181.007812 634.019531 317.078125 520.15625 C 446.382812 411.957031 342.269531 279.691406 342.269531 279.691406 C 342.269531 279.691406 324.601562 280.941406 306.28125 286.234375 Z M 628.566406 226.707031 L 585.5625 313.921875 C 585.5625 313.921875 623.992188 345.757812 634.113281 373.230469 C 644.230469 347.066406 646.925781 280.34375 628.566406 226.707031 Z M 628.566406 226.707031 " fill-opacity="1" fill-rule="nonzero"/><g clip-path="url(#8ea282f32f)"><path fill="#ef5454" d="M 770.074219 830.746094 C 770.074219 830.746094 770.074219 830.746094 690.578125 830.746094 C 752.410156 825.152344 759.945312 658.441406 759.945312 658.441406 Z M 186.652344 313.921875 C 186.652344 313.921875 152.625 243.277344 146.957031 226.707031 C 132.5625 261.59375 130.191406 348.808594 141.410156 373.230469 C 163.480469 346.34375 186.652344 313.921875 186.652344 313.921875 Z M 579.15625 830.75 C 586.4375 785.164062 596.425781 722.429688 604.472656 671.867188 C 604.433594 671.878906 604.398438 671.894531 604.359375 671.910156 L 612.589844 581.125 C 612.066406 581.765625 611.398438 582.636719 610.585938 583.808594 C 604.351562 592.816406 590.238281 618.773438 578.835938 680.449219 C 532.117188 694.347656 470.582031 703.917969 389.578125 704.476562 C 75.496094 702.316406 54.101562 564.621094 54.101562 564.621094 C 54.101562 564.621094 48.429688 583.191406 60.488281 613.523438 C 56.972656 610.550781 54.296875 608.199219 52.832031 606.75 C 62.082031 676.304688 152.628906 729.941406 152.628906 729.941406 L 117.4375 830.757812 C 117.4375 830.757812 154.371094 830.757812 194.503906 830.757812 C 218.933594 751.035156 248.453125 753.128906 248.453125 753.128906 C 309.9375 766.582031 368.976562 770.210938 389.578125 770.210938 C 410.179688 770.210938 469.222656 766.582031 530.703125 753.128906 L 530.707031 753.128906 C 530.707031 753.128906 545.800781 752.066406 563.335938 780.609375 C 556.96875 821.230469 554.917969 830.710938 554.917969 830.710938 Z M 475.054688 289.5625 L 511.265625 299.96875 C 511.265625 299.96875 524.78125 251.320312 583.886719 210.230469 C 542.667969 221.476562 498.175781 251.246094 475.054688 289.5625 Z M 192.394531 210.230469 C 251.5 251.316406 265.019531 299.96875 265.019531 299.96875 L 301.230469 289.5625 C 278.109375 251.246094 233.617188 221.476562 192.394531 210.230469 Z M 413.476562 593.472656 C 413.476562 593.472656 383.816406 600.28125 358.515625 592.722656 C 362.007812 621.792969 404.753906 624.410156 413.476562 593.472656 Z M 413.476562 593.472656 " fill-opacity="0.3" fill-rule="nonzero"/></g><g clip-path="url(#c49a5190dd)"><path fill="#ffffff" d="M 116.167969 273.421875 C 116.167969 273.421875 109.53125 364.546875 140.675781 408.136719 C 107.699219 432.101562 51.167969 509.976562 52.769531 573.390625 C 40.320312 532.183594 58.175781 461.738281 107.472656 398.746094 C 102.464844 361.457031 107.472656 310.160156 116.167969 273.421875 Z M 597.769531 744.59375 C 615.433594 613.597656 645.609375 573.503906 645.609375 573.503906 C 595.953125 560.097656 593.195312 686.332031 597.769531 744.59375 Z M 88.171875 658.441406 C 88.171875 658.441406 148.921875 714.023438 186.214844 719.910156 C 171.167969 738.878906 140.675781 830.757812 140.675781 830.757812 L 113.589844 830.757812 L 148.921875 727.761719 C 148.921875 727.761719 89.566406 698.375 88.171875 658.441406 Z M 88.171875 658.441406 " fill-opacity="1" fill-rule="nonzero"/></g><g clip-path="url(#25233a8499)"><path fill="#2b0806" d="M 779.890625 830.746094 C 771.546875 830.746094 760.585938 830.746094 760.585938 830.746094 C 760.421875 798.894531 766.03125 634.242188 749.320312 578.761719 C 740.476562 549.394531 712.902344 563.433594 709.152344 587.875 C 706.65625 575.609375 703.820312 562.410156 691.277344 563.714844 C 675.78125 565.328125 669.441406 592.703125 669.441406 592.703125 C 669.441406 592.703125 656.996094 572.753906 645.609375 573.5 C 627.632812 574.679688 615.792969 601.085938 607.171875 657.300781 C 602.324219 688.90625 589.859375 830.746094 589.859375 830.746094 L 573.804688 830.746094 C 573.804688 830.746094 582.628906 732.980469 585.464844 711.796875 L 585.546875 711.191406 L 587.824219 694.683594 C 592.996094 658.386719 598.75 625.46875 604.300781 604.640625 C 618.742188 550.441406 651.511719 544.734375 666.289062 570.761719 C 673.867188 542.855469 706.765625 538.203125 710.238281 562.757812 C 711.316406 557.625 716.433594 551.457031 723.640625 548.886719 C 720.777344 507.023438 702.449219 456.539062 658.28125 396.128906 C 667.9375 375.847656 678.238281 280.433594 637.691406 196.617188 C 617.1875 196.617188 548.496094 213.394531 482.191406 285.464844 C 493.453125 289.363281 504.042969 294.132812 512.9375 299.96875 C 510.171875 300.078125 449.613281 282.890625 389.054688 282.890625 C 328.496094 282.890625 267.933594 300.078125 265.167969 299.96875 C 274.066406 294.132812 284.65625 289.363281 295.917969 285.464844 C 229.613281 213.394531 160.917969 196.617188 140.414062 196.617188 C 99.871094 280.433594 110.171875 375.847656 119.828125 396.128906 C -40.171875 614.960938 138.804688 703.628906 164.296875 723.507812 C 149.902344 752.945312 123.402344 830.746094 123.402344 830.746094 L 105.628906 830.746094 C 105.628906 830.746094 122.820312 776.527344 143.757812 728.125 C -15.964844 634.242188 35.726562 480.503906 101.15625 398.746094 C 81.527344 282.972656 122.09375 183.535156 137.796875 180.894531 C 241.851562 200.792969 295.019531 262.773438 308.9375 281.402344 C 327.621094 276.15625 358.332031 268.511719 389.054688 268.507812 C 419.738281 268.507812 450.433594 276.140625 469.171875 281.402344 C 483.085938 262.773438 536.253906 200.792969 640.308594 180.894531 C 656.011719 183.535156 696.578125 282.972656 676.949219 398.746094 C 708 437.542969 735.925781 492.550781 739.664062 549.675781 C 745.046875 552.050781 750.722656 556.714844 756.296875 564.675781 C 766.703125 579.542969 768.28125 598.71875 773.1875 637.339844 C 777.714844 672.996094 779.890625 809.6875 779.890625 830.746094 Z M 628.566406 226.707031 C 628.566406 226.707031 598.730469 268.933594 576.800781 313.886719 C 591.507812 323.515625 621.75 354.914062 634.113281 373.230469 C 639.929688 362.765625 609.710938 318.390625 594.324219 309.78125 C 610.339844 292.773438 628.566406 226.707031 628.566406 226.707031 Z M 146.957031 226.707031 C 146.957031 226.707031 176.789062 268.933594 198.722656 313.886719 C 184.011719 323.515625 153.769531 354.914062 141.410156 373.230469 C 135.59375 362.765625 165.808594 318.390625 181.199219 309.78125 C 165.179688 292.773438 146.957031 226.707031 146.957031 226.707031 Z M 230.199219 438.105469 C 196.890625 445.960938 174.320312 479.195312 167.441406 506.746094 C 166.394531 510.945312 168.648438 514.277344 173.324219 515.445312 C 180.882812 517.339844 194.632812 513.488281 196.65625 505.378906 C 199.300781 494.792969 203.792969 485.183594 210.019531 476.824219 C 214.710938 470.523438 223.867188 459.632812 232.503906 457.472656 C 239.445312 455.734375 246.085938 467.089844 249.648438 473.183594 L 250.488281 474.617188 C 256.601562 484.925781 261.539062 496.871094 265.164062 510.125 C 266.4375 514.777344 270.996094 516.609375 276.050781 516.609375 C 278.164062 516.609375 280.359375 516.289062 282.441406 515.71875 C 290.910156 513.40625 295.757812 507.894531 294.230469 502.316406 C 280.894531 453.574219 258.757812 431.371094 230.199219 438.105469 Z M 608.046875 502.316406 C 594.710938 453.570312 572.566406 431.371094 544.011719 438.105469 C 510.707031 445.960938 488.136719 479.195312 481.257812 506.746094 C 480.621094 509.296875 481.214844 511.617188 482.933594 513.273438 C 486.527344 516.746094 493.714844 516.285156 498.773438 514.832031 C 505.070312 513.03125 509.445312 509.496094 510.472656 505.378906 C 513.117188 494.789062 517.609375 485.183594 523.835938 476.824219 C 528.527344 470.523438 537.683594 459.632812 546.316406 457.472656 C 553.261719 455.746094 559.902344 467.089844 563.464844 473.1875 L 564.304688 474.617188 C 570.414062 484.921875 575.351562 496.867188 578.980469 510.125 C 579.789062 513.078125 582.140625 515.203125 585.597656 516.113281 C 586.921875 516.457031 588.367188 516.621094 589.871094 516.621094 C 595.488281 516.621094 601.898438 514.335938 605.449219 510.742188 C 607.929688 508.242188 608.847656 505.25 608.046875 502.316406 Z M 436.050781 516.988281 C 432.511719 518.875 430.832031 524.925781 434.289062 531.417969 C 436.300781 535.1875 434.152344 539.082031 432.699219 541.066406 C 428.882812 546.257812 422.035156 549.425781 416.777344 548.441406 C 407.714844 546.742188 402.253906 536.085938 398.511719 526.992188 C 396.765625 522.753906 393.09375 520.117188 388.933594 520.117188 C 384.777344 520.117188 381.105469 522.753906 379.359375 526.992188 C 376.289062 534.453125 370.570312 548.339844 361.097656 550.109375 C 357.074219 550.867188 352.054688 548.917969 348.050781 545.070312 C 342.128906 539.105469 343.902344 531.332031 344.542969 529.21875 C 344.605469 529.054688 344.65625 528.894531 344.722656 528.671875 L 346.097656 524.996094 L 345.410156 524.996094 C 345.597656 521.15625 344.0625 517.867188 341.308594 516.753906 C 338.945312 515.800781 335.476562 516.53125 332.847656 521.464844 C 327.957031 530.640625 327.6875 541.554688 332.121094 550.664062 C 336.238281 559.125 343.992188 564.933594 353.394531 566.597656 C 366.875 569 379.113281 563.300781 388.933594 550.121094 C 397.296875 561.339844 407.398438 567.132812 418.542969 567.132812 C 420.488281 567.132812 422.46875 566.953125 424.476562 566.597656 C 433.875 564.933594 441.628906 559.125 445.746094 550.664062 C 450.183594 541.554688 449.910156 530.640625 445.023438 521.464844 C 442.1875 516.140625 438.414062 515.730469 436.050781 516.988281 Z M 436.050781 516.988281 " fill-opacity="1" fill-rule="nonzero"/></g><path fill="#ef5454" d="M 688.070312 648.828125 C 683.175781 643.332031 663.609375 628.421875 651.03125 652.75 C 638.449219 677.082031 672.777344 701.414062 688.070312 701.414062 C 703.359375 701.414062 737.6875 677.082031 725.105469 652.75 C 712.527344 628.421875 692.960938 643.332031 688.070312 648.828125 Z M 700.070312 607.839844 C 700.070312 600.414062 695.820312 594.394531 690.578125 594.394531 C 685.332031 594.394531 681.082031 600.414062 681.082031 607.839844 C 681.082031 615.265625 685.332031 621.285156 690.578125 621.285156 C 695.820312 621.285156 700.070312 615.265625 700.070312 607.839844 Z M 729.507812 602.476562 C 724.1875 601.667969 718.863281 606.617188 717.617188 613.535156 C 716.367188 620.453125 719.667969 626.714844 724.988281 627.523438 C 730.308594 628.328125 735.628906 623.378906 736.878906 616.460938 C 738.125 609.546875 734.824219 603.285156 729.507812 602.476562 Z M 652.777344 628.191406 C 658.152344 626.636719 660.539062 619.773438 658.109375 612.867188 C 655.675781 605.960938 649.347656 601.625 643.96875 603.179688 C 638.59375 604.738281 636.207031 611.597656 638.640625 618.507812 C 641.070312 625.414062 647.402344 629.75 652.777344 628.191406 Z M 652.777344 628.191406 " fill-opacity="1" fill-rule="nonzero"/></svg>