<svg xmlns="http://www.w3.org/2000/svg" xmlns:xlink="http://www.w3.org/1999/xlink" width="1080" zoomAndPan="magnify" viewBox="0 0 810 809.999993" height="1080" preserveAspectRatio="xMidYMid meet" version="1.0"><defs><clipPath id="90fe56f44c"><path d="M 24 114 L 713 114 L 713 733.667969 L 24 733.667969 Z M 24 114 " clip-rule="nonzero"/></clipPath><clipPath id="25ce37c857"><path d="M 43 167 L 691 167 L 691 733.667969 L 43 733.667969 Z M 43 167 " clip-rule="nonzero"/></clipPath><clipPath id="d9ecd15354"><path d="M 142 400 L 645 400 L 645 733.667969 L 142 733.667969 Z M 142 400 " clip-rule="nonzero"/></clipPath><clipPath id="50fc5cd5ee"><path d="M 30 119 L 715 119 L 715 733.667969 L 30 733.667969 Z M 30 119 " clip-rule="nonzero"/></clipPath><clipPath id="b3c595aad6"><path d="M 16 107 L 721 107 L 721 733.667969 L 16 733.667969 Z M 16 107 " clip-rule="nonzero"/></clipPath><clipPath id="1619c432b1"><path d="M 316 215 L 739 215 L 739 733.667969 L 316 733.667969 Z M 316 215 " clip-rule="nonzero"/></clipPath></defs><g clip-path="url(#90fe56f44c)"><path fill="#ffffff" d="M 710.753906 501.269531 C 702.566406 562.160156 644.078125 634.515625 644.078125 634.515625 L 559.246094 733.519531 L 80.324219 733.519531 C 80.324219 733.519531 103.839844 703 123.1875 670.992188 C 70.058594 637.34375 45.054688 600.71875 30.46875 567.371094 C 17.074219 536.554688 30.46875 478.492188 30.46875 478.492188 C 43.566406 436.0625 71.246094 401.371094 86.128906 383.359375 C 53.6875 326.636719 80.476562 179.542969 92.53125 164.804688 C 173.640625 153.339844 282.132812 242.519531 282.132812 242.519531 C 282.132812 242.519531 338.242188 226.441406 363.988281 224.953125 C 362.5 179.992188 386.015625 142.027344 386.460938 114.632812 C 451.945312 119.097656 525.464844 191.15625 545.703125 245.945312 C 709.710938 331.398438 718.789062 440.378906 710.753906 501.269531 Z M 610.296875 612.78125 C 611.484375 588.660156 581.570312 573.179688 582.464844 605.78125 C 583.207031 638.386719 609.699219 625.136719 610.296875 612.78125 Z M 610.296875 612.78125 " fill-opacity="1" fill-rule="nonzero"/></g><g clip-path="url(#25ce37c857)"><path fill="#efb07d" d="M 538.5625 733.519531 C 522.488281 670.394531 531.714844 554.867188 549.277344 541.914062 C 566.839844 528.960938 578.742188 544.296875 578.742188 544.296875 C 578.742188 544.296875 579.339844 530.746094 595.710938 526.28125 C 612.082031 521.964844 622.796875 547.273438 622.796875 547.273438 C 622.796875 547.273438 636.042969 499.035156 666.402344 565.4375 C 696.761719 631.835938 689.320312 733.519531 689.320312 733.519531 C 689.320312 733.519531 577.40625 733.519531 538.5625 733.519531 Z M 271.417969 242.519531 C 236.59375 186.390625 126.015625 159.890625 95.953125 168.824219 C 50.261719 251.601562 75.5625 387.527344 75.5625 387.527344 C 75.5625 387.527344 55.027344 417.300781 43.566406 451.84375 C 72.140625 495.910156 186.4375 559.332031 301.777344 469.410156 C 425.15625 373.382812 320.085938 237.308594 320.085938 237.308594 C 320.085938 237.308594 300.441406 233.289062 271.417969 242.519531 Z M 271.417969 242.519531 " fill-opacity="1" fill-rule="nonzero"/></g><g clip-path="url(#d9ecd15354)"><path fill="#ef5454" d="M 578.742188 544.148438 C 544.515625 513.328125 537.519531 559.035156 533.054688 586.429688 C 528.589844 613.820312 531.863281 692.726562 531.863281 692.726562 L 492.425781 733.667969 L 401.046875 733.667969 L 321.574219 682.15625 C 321.574219 682.15625 314.726562 631.835938 312.941406 579.730469 C 311.15625 527.621094 281.390625 531.492188 271.714844 543.105469 C 267.25 524.046875 246.863281 527.324219 246.863281 527.324219 C 246.863281 527.324219 247.753906 496.355469 280.347656 471.792969 C 360.863281 427.277344 433.488281 496.355469 433.488281 496.355469 C 433.488281 496.355469 487.214844 411.199219 559.398438 433.976562 C 631.578125 456.753906 612.230469 532.832031 612.230469 532.832031 C 598.089844 518.984375 584.996094 532.238281 578.742188 544.148438 Z M 578.742188 544.148438 C 544.515625 513.328125 537.519531 559.035156 533.054688 586.429688 C 528.589844 613.820312 531.863281 692.726562 531.863281 692.726562 L 492.425781 733.667969 L 401.046875 733.667969 L 321.574219 682.15625 C 321.574219 682.15625 314.726562 631.835938 312.941406 579.730469 C 311.15625 527.621094 281.390625 531.492188 271.714844 543.105469 C 267.25 524.046875 246.863281 527.324219 246.863281 527.324219 C 246.863281 527.324219 247.753906 496.355469 280.347656 471.792969 C 360.863281 427.277344 433.488281 496.355469 433.488281 496.355469 C 433.488281 496.355469 487.214844 411.199219 559.398438 433.976562 C 631.578125 456.753906 612.230469 532.832031 612.230469 532.832031 C 598.089844 518.984375 584.996094 532.238281 578.742188 544.148438 Z M 619.820312 408.519531 C 623.539062 412.984375 624.730469 418.195312 622.648438 419.980469 C 620.414062 421.769531 615.800781 419.386719 612.082031 414.921875 C 608.359375 410.453125 607.167969 405.242188 609.253906 403.457031 C 611.484375 401.671875 616.097656 404.050781 619.820312 408.519531 Z M 598.390625 410.007812 C 602.109375 414.472656 603.300781 419.683594 601.214844 421.472656 C 599.132812 423.257812 594.371094 420.875 590.648438 416.410156 C 586.929688 411.941406 585.738281 406.730469 587.824219 404.945312 C 590.054688 403.160156 594.816406 405.390625 598.390625 410.007812 Z M 197.15625 475.515625 C 200.875 479.980469 202.066406 485.191406 199.980469 486.976562 C 197.898438 488.765625 193.136719 486.382812 189.414062 481.914062 C 185.695312 477.449219 184.503906 472.238281 186.585938 470.453125 C 188.820312 468.664062 193.433594 471.046875 197.15625 475.515625 Z M 175.722656 476.855469 C 179.445312 481.320312 180.632812 486.53125 178.550781 488.316406 C 176.320312 490.105469 171.707031 487.722656 167.984375 483.253906 C 164.265625 478.789062 163.074219 473.578125 165.15625 471.792969 C 167.390625 470.152344 172.003906 472.386719 175.722656 476.855469 Z M 640.953125 406.582031 C 644.675781 411.050781 645.863281 416.261719 643.78125 418.046875 C 641.699219 419.832031 636.933594 417.453125 633.214844 412.984375 C 629.492188 408.519531 628.304688 403.308594 630.386719 401.519531 C 632.617188 399.882812 637.234375 402.117188 640.953125 406.582031 Z M 153.695312 478.34375 C 157.417969 482.808594 158.609375 488.019531 156.523438 489.804688 C 154.292969 491.59375 149.679688 489.210938 145.957031 484.746094 C 142.238281 480.277344 141.046875 475.066406 143.128906 473.28125 C 145.363281 471.644531 149.976562 473.875 153.695312 478.34375 Z M 153.695312 478.34375 " fill-opacity="1" fill-rule="nonzero"/></g><g clip-path="url(#50fc5cd5ee)"><path fill="#ef5454" d="M 168.429688 298.199219 C 168.429688 298.199219 127.058594 328.71875 118.574219 351.945312 C 86.128906 283.90625 116.640625 202.171875 116.640625 202.171875 Z M 228.558594 541.914062 C 198.941406 513.03125 182.121094 569.902344 182.121094 569.902344 L 173.9375 583.300781 C 175.277344 577.496094 176.765625 571.988281 178.105469 567.371094 C 105.03125 540.425781 102.796875 437.847656 116.492188 397.652344 C 81.070312 362.21875 76.902344 266.636719 76.902344 266.636719 C 73.777344 293.136719 70.800781 353.136719 76.605469 388.421875 C 42.671875 415.960938 30.765625 478.492188 30.765625 478.492188 L 30.765625 487.574219 L 34.933594 492.1875 C 34.933594 492.1875 22.878906 597.890625 149.976562 663.398438 C 136.433594 694.363281 112.027344 733.371094 112.027344 733.371094 C 122.296875 733.371094 190.160156 733.371094 195.070312 733.371094 C 192.988281 708.507812 198.195312 648.363281 202.660156 606.527344 C 207.125 564.691406 224.6875 557.246094 231.234375 568.414062 C 238.527344 535.660156 257.28125 532.085938 257.28125 532.085938 C 251.03125 528.8125 235.253906 526.578125 228.558594 541.914062 Z M 704.949219 433.828125 C 704.949219 433.828125 704.949219 501.121094 653.902344 542.65625 C 671.761719 561.863281 679.5 586.429688 679.5 586.429688 C 679.5 586.429688 735.753906 493.675781 704.949219 433.828125 Z M 401.046875 733.519531 L 315.917969 682.007812 L 319.339844 733.519531 Z M 492.425781 733.519531 L 538.5625 733.519531 L 531.863281 692.578125 M 405.808594 214.976562 C 405.808594 214.976562 396.433594 176.714844 392.5625 119.246094 C 373.8125 136.816406 364.285156 225.101562 364.285156 225.101562 Z M 602.703125 532.085938 C 602.703125 532.085938 588.863281 540.425781 585.738281 573.179688 C 581.125 551.886719 559.84375 552.484375 559.097656 585.535156 C 558.355469 618.882812 562.222656 719.375 569.070312 733.519531 C 538.5625 733.519531 537.816406 733.519531 537.816406 733.519531 C 537.816406 733.519531 525.761719 600.421875 540.941406 560.226562 C 556.121094 519.878906 578.894531 544.148438 578.894531 544.148438 C 578.894531 544.148438 583.953125 512.734375 602.703125 532.085938 Z M 602.703125 532.085938 " fill-opacity="0.3" fill-rule="nonzero"/></g><path fill="#ffffff" d="M 567.878906 437.699219 C 627.261719 453.628906 612.378906 532.683594 612.378906 532.683594 C 612.378906 532.683594 612.378906 532.683594 601.066406 525.6875 C 594.371094 422.8125 508.347656 442.3125 508.347656 442.3125 C 508.347656 442.3125 508.5 421.917969 567.878906 437.699219 Z M 135.988281 174.183594 C 135.988281 174.183594 238.972656 208.425781 270.226562 261.722656 C 288.535156 254.132812 348.363281 236.117188 364.285156 232.097656 C 351.785156 232.84375 282.429688 242.519531 282.429688 242.519531 C 282.429688 242.519531 210.996094 178.203125 135.988281 174.183594 Z M 135.988281 174.183594 " fill-opacity="1" fill-rule="nonzero"/><g clip-path="url(#b3c595aad6)"><path fill="#2b0806" d="M 565.5 359.6875 C 566.988281 359.984375 568.328125 360.429688 569.515625 360.878906 C 573.535156 362.21875 574.429688 366.683594 572.792969 369.660156 C 575.320312 370.554688 577.554688 371.746094 579.785156 373.234375 C 584.546875 376.808594 582.910156 383.804688 576.808594 384.25 C 575.917969 384.25 575.023438 384.398438 574.128906 384.398438 C 574.875 384.550781 575.769531 384.550781 576.660156 384.699219 C 584.101562 385.589844 584.25 395.863281 576.660156 396.160156 C 549.425781 398.246094 522.042969 401.96875 496.445312 411.792969 C 490.492188 414.175781 487.363281 406.136719 491.085938 402.117188 C 487.214844 402.5625 483.347656 403.011719 479.476562 403.308594 C 473.96875 403.605469 471.292969 394.671875 476.5 392.289062 C 484.6875 388.570312 492.871094 385.738281 501.355469 383.359375 C 494.210938 384.25 487.066406 385.292969 480.074219 386.484375 C 473.523438 387.675781 470.546875 380.230469 474.863281 376.507812 C 470.996094 374.425781 471.441406 367.277344 476.351562 365.492188 C 504.035156 355.667969 532.308594 349.117188 561.777344 353.285156 C 565.199219 353.582031 566.390625 356.859375 565.5 359.6875 Z M 120.359375 355.964844 C 126.460938 348.222656 160.839844 305.644531 177.359375 301.027344 C 155.183594 232.542969 116.492188 202.023438 116.492188 202.023438 C 116.492188 209.617188 150.125 275.125 156.824219 297.15625 C 121.105469 320.976562 114.257812 358.347656 120.359375 355.964844 Z M 273.949219 396.011719 C 272.164062 395.714844 270.527344 395.566406 268.886719 395.417969 C 268.886719 392.441406 267.101562 389.460938 263.234375 389.609375 C 233.617188 390.207031 206.679688 401.671875 181.082031 415.960938 C 176.46875 418.640625 177.957031 424.894531 182.121094 426.53125 C 178.550781 430.402344 181.972656 438.144531 187.777344 436.210938 C 194.625 433.828125 201.46875 431.742188 208.316406 429.808594 C 200.875 433.382812 193.730469 437.253906 186.886719 441.71875 C 181.527344 445.441406 184.800781 453.925781 191.351562 452.4375 C 194.921875 451.542969 198.195312 450.652344 201.769531 449.609375 C 198.792969 453.925781 204 461.074219 209.65625 457.945312 C 233.46875 444.101562 259.808594 436.0625 286.449219 429.808594 C 292.847656 428.023438 291.660156 417.898438 284.960938 418.195312 C 283.769531 418.195312 282.730469 418.34375 281.539062 418.492188 C 282.582031 418.195312 283.472656 418.046875 284.515625 417.75 C 289.128906 416.558594 290.46875 409.261719 286.003906 407.03125 C 283.324219 405.691406 280.644531 404.945312 277.667969 404.351562 C 278.859375 401.074219 277.667969 396.757812 273.949219 396.011719 Z M 374.703125 439.039062 C 383.632812 437.402344 391.222656 431.59375 397.324219 424.894531 C 406.253906 429.957031 416.226562 432.785156 426.199219 429.0625 C 436.617188 425.34375 441.230469 415.070312 441.972656 404.351562 C 442.566406 396.011719 435.722656 394.226562 434.085938 402.5625 C 432.746094 409.710938 429.175781 416.855469 422.03125 418.792969 C 413.992188 420.875 405.660156 414.921875 399.410156 410.601562 C 397.175781 409.113281 393.15625 409.410156 391.371094 411.644531 C 387.054688 417.003906 382.144531 424 375.597656 426.53125 C 366.667969 429.957031 355.058594 426.382812 348.0625 420.28125 C 341.8125 414.769531 336.753906 419.238281 342.558594 425.492188 C 351.785156 435.914062 361.457031 441.273438 374.703125 439.039062 Z M 552.996094 242.519531 C 512.664062 151.851562 414.738281 107.785156 386.164062 107.785156 C 363.09375 152.894531 357.589844 202.023438 355.953125 218.699219 C 333.628906 220.484375 307.730469 224.207031 282.28125 232.097656 C 267.398438 210.511719 166.941406 159.148438 92.679688 155.574219 C 77.796875 163.613281 45.796875 301.324219 74.523438 381.871094 C 67.972656 389.164062 60.679688 398.992188 53.6875 410.453125 C 42.523438 427.128906 16.480469 477.449219 16.480469 521.667969 C 16.480469 565.882812 34.636719 595.660156 34.636719 595.660156 C 49.371094 624.390625 75.265625 651.785156 117.234375 674.414062 C 97.886719 701.066406 71.546875 733.519531 71.546875 733.519531 L 92.382812 733.519531 C 92.382812 733.519531 129.289062 676.945312 136.136719 671.289062 C 125.269531 665.78125 71.546875 636.152344 44.308594 588.363281 C 42.820312 585.683594 41.332031 583.003906 40.144531 580.324219 C 25.113281 548.015625 30.023438 510.5 36.125 487.273438 C 55.027344 418.195312 87.617188 387.972656 87.617188 387.972656 C 87.617188 387.972656 55.027344 287.628906 98.332031 170.3125 C 141.640625 168.972656 224.242188 193.6875 277.667969 248.472656 C 333.332031 232.097656 411.316406 226.292969 419.203125 218.402344 C 419.203125 218.402344 417.714844 211.550781 373.8125 216.464844 C 374.703125 204.257812 376.636719 172.695312 392.414062 118.949219 C 515.195312 165.101562 540.792969 252.644531 540.792969 252.644531 C 540.792969 252.644531 625.921875 268.722656 683.515625 377.550781 C 732.035156 468.964844 692 547.570312 675.628906 574.367188 C 674.140625 570.050781 672.652344 565.734375 671.460938 561.863281 C 656.730469 520.027344 630.535156 519.433594 623.09375 537 C 622.648438 535.511719 622.050781 534.171875 621.308594 532.980469 C 632.320312 439.484375 564.308594 420.578125 520.703125 427.574219 C 490.339844 432.339844 460.578125 450.800781 430.066406 489.65625 C 430.066406 489.65625 350.445312 418.640625 278.5625 463.605469 C 252.070312 480.128906 238.378906 501.417969 234.957031 526.429688 C 231.832031 529.109375 229.449219 532.535156 227.960938 537.148438 C 220.519531 519.433594 194.328125 520.175781 179.59375 562.011719 C 165.007812 603.847656 146.703125 668.3125 157.566406 733.667969 C 165.453125 733.667969 168.578125 733.667969 168.578125 733.667969 C 168.578125 733.667969 159.203125 676.5 181.675781 591.640625 C 204.148438 506.777344 228.558594 549.65625 229.300781 554.867188 C 235.105469 525.984375 268.292969 523.007812 270.527344 551.738281 C 286.300781 531.34375 305.5 537.296875 310.113281 597.445312 C 314.578125 657.59375 307.136719 733.519531 307.136719 733.519531 L 319.339844 733.519531 C 319.339844 733.519531 321.574219 717.144531 323.359375 693.472656 C 343.597656 710.144531 364.433594 723.246094 383.632812 733.519531 L 412.65625 733.519531 C 388.992188 722.949219 359.820312 707.019531 331.84375 684.09375 C 329.3125 682.007812 326.929688 679.921875 324.402344 677.839844 C 326.039062 650.148438 326.632812 616.351562 322.761719 587.023438 C 314.726562 524.195312 287.640625 523.601562 274.394531 536.257812 C 271.417969 525.835938 262.042969 520.625 252.367188 520.476562 C 257.429688 501.417969 269.632812 485.488281 290.765625 472.386719 C 352.527344 434.421875 432.894531 508.714844 432.894531 508.714844 C 465.042969 472.238281 489.003906 451.542969 515.941406 443.355469 C 562.222656 429.363281 608.808594 448.417969 606.871094 521.667969 C 594.964844 518.09375 580.53125 523.15625 576.808594 536.257812 C 563.710938 523.75 536.476562 524.347656 528.441406 587.023438 C 524.273438 620.371094 525.464844 659.527344 527.546875 689.152344 C 511.625 707.765625 496.144531 722.949219 484.539062 733.667969 L 503.734375 733.667969 C 511.625 725.925781 520.253906 716.996094 529.183594 707.019531 C 530.671875 723.246094 532.160156 733.667969 532.160156 733.667969 L 544.367188 733.667969 C 544.367188 733.667969 536.925781 657.742188 541.390625 597.59375 C 545.851562 537.445312 565.199219 531.492188 580.976562 551.886719 C 583.058594 523.15625 616.097656 525.984375 622.203125 555.015625 C 622.945312 549.65625 647.203125 506.925781 669.824219 591.789062 C 692.445312 676.648438 682.773438 733.667969 682.773438 733.667969 C 682.773438 733.667969 685.898438 733.667969 693.785156 733.667969 C 702.269531 682.753906 693.042969 632.28125 681.582031 592.828125 C 793.648438 417.300781 638.570312 269.316406 552.996094 242.519531 Z M 552.996094 242.519531 " fill-opacity="1" fill-rule="nonzero"/></g><path fill="#ef5454" d="M 730.695312 255.023438 C 698.101562 285.394531 654.644531 282.714844 654.644531 282.714844 C 654.644531 282.714844 640.804688 265.445312 635.894531 238.648438 C 630.089844 205.597656 641.996094 168.675781 671.3125 168.972656 C 696.910156 169.121094 690.214844 215.421875 690.214844 215.421875 C 701.375 207.53125 720.277344 194.582031 734.117188 200.980469 C 742.15625 204.851562 750.042969 233.734375 730.695312 255.023438 Z M 600.621094 187.582031 C 587.078125 183.414062 571.75 193.835938 561.480469 203.660156 C 561.480469 203.660156 563.117188 161.679688 538.5625 165.847656 C 510.285156 170.609375 500.757812 210.0625 508.050781 242.519531 C 514.003906 269.019531 528.292969 284.054688 528.292969 284.054688 C 528.292969 284.054688 570.261719 279.292969 600.175781 242.816406 C 626.515625 210.660156 608.507812 190.113281 600.621094 187.582031 Z M 754.953125 337.652344 C 751.679688 332.441406 743.644531 331.398438 737.542969 331.847656 C 737.542969 331.847656 750.042969 318.445312 740.816406 312.789062 C 730.101562 306.238281 715.664062 316.511719 708.964844 329.316406 C 703.460938 339.738281 703.757812 348.820312 703.757812 348.820312 C 703.757812 348.820312 718.9375 359.238281 739.179688 355.816406 C 756.890625 352.6875 756.738281 340.777344 754.953125 337.652344 Z M 754.953125 337.652344 " fill-opacity="1" fill-rule="nonzero"/><path fill="#2b0806" d="M 740.21875 196.664062 C 724.59375 189.371094 706.140625 198.003906 693.636719 206.789062 C 693.636719 206.789062 698.101562 160.785156 669.230469 160.488281 C 636.042969 160.191406 622.5 201.875 629.046875 239.242188 C 634.40625 269.613281 650.03125 288.96875 650.03125 288.96875 C 650.03125 288.96875 699.292969 291.945312 736.054688 257.554688 C 739.328125 254.578125 742.007812 251.75 744.089844 248.773438 C 752.425781 236.714844 760.609375 206.339844 740.21875 196.664062 Z M 725.1875 253.386719 C 695.574219 281.078125 655.835938 278.695312 655.835938 278.695312 C 655.835938 278.695312 643.1875 263.0625 638.871094 238.5 C 633.660156 208.425781 644.523438 174.78125 671.3125 174.929688 C 694.53125 175.078125 685.75 219.890625 685.75 219.890625 C 696.019531 212.742188 715.8125 198.152344 728.3125 203.960938 C 735.605469 207.683594 751.382812 228.824219 725.1875 253.386719 Z M 654.199219 86.941406 C 647.203125 85.601562 640.359375 91.257812 635.894531 96.617188 C 635.894531 96.617188 633.511719 76.667969 621.605469 79.796875 C 607.914062 83.515625 606.277344 102.722656 612.230469 117.757812 C 617.140625 129.96875 625.328125 136.519531 625.328125 136.519531 C 625.328125 136.519531 645.714844 132.199219 657.769531 113.441406 C 668.785156 96.617188 658.21875 87.6875 654.199219 86.941406 Z M 744.984375 247.582031 C 751.976562 238.054688 757.335938 220.335938 750.339844 206.640625 C 744.386719 215.871094 744.984375 247.582031 744.984375 247.582031 Z M 744.984375 247.582031 " fill-opacity="1" fill-rule="nonzero"/><g clip-path="url(#1619c432b1)"><path fill="#15172b" d="M 612.378906 532.832031 C 598.089844 519.136719 584.996094 525.984375 576.957031 536.257812 C 550.765625 525.835938 539.453125 552.632812 533.203125 586.429688 C 526.953125 620.371094 532.011719 692.726562 532.011719 692.726562 L 492.574219 733.667969 L 401.195312 733.667969 L 316.066406 682.15625 C 316.066406 682.15625 318.449219 624.390625 323.804688 594.765625 C 381.550781 648.210938 468.464844 606.078125 503.140625 535.957031 C 537.816406 465.835938 606.128906 501.417969 606.128906 501.417969 C 606.128906 501.417969 622.796875 513.625 612.378906 532.832031 Z M 738.582031 235.523438 C 738.582031 235.523438 730.992188 214.082031 695.871094 231.351562 C 660.746094 248.472656 643.78125 239.394531 637.082031 215.722656 C 634.40625 243.859375 643.335938 269.316406 657.917969 282.867188 C 684.855469 282.867188 727.570312 274.082031 738.582031 235.523438 Z M 738.582031 235.523438 " fill-opacity="0.15" fill-rule="nonzero"/></g></svg>