<svg xmlns="http://www.w3.org/2000/svg" xmlns:xlink="http://www.w3.org/1999/xlink" width="1080" zoomAndPan="magnify" viewBox="0 0 810 809.999993" height="1080" preserveAspectRatio="xMidYMid meet" version="1.0"><path fill="#ffffff" d="M 688.277344 722.851562 L 681.949219 721.945312 C 681.949219 721.945312 688.730469 711.546875 709.214844 666.1875 C 729.699219 620.824219 709.96875 608.316406 691.589844 614.644531 C 703.492188 588.425781 667.039062 589.628906 660.261719 596.261719 C 653.785156 575.3125 659.054688 575.011719 629.984375 577.722656 C 600.914062 580.285156 474.234375 721.796875 474.234375 721.796875 C 474.234375 721.796875 188.945312 722.699219 80.191406 722.699219 C 54.132812 691.351562 28.074219 643.882812 37.261719 621.277344 C 46.601562 598.824219 74.167969 589.328125 74.167969 589.328125 C 74.167969 589.328125 69.796875 586.3125 63.773438 542.460938 C 62.265625 397.332031 128.242188 351.972656 189.847656 300.433594 C 208.828125 206.394531 280.375 107.835938 320.746094 85.230469 C 373.464844 123.359375 439.589844 235.933594 439.589844 235.933594 L 524.695312 258.234375 C 524.695312 258.234375 626.972656 145.511719 672.613281 122.90625 C 715.089844 162.839844 729.699219 223.574219 736.175781 261.097656 C 751.089844 348.808594 736.175781 396.128906 736.175781 396.128906 C 736.175781 396.128906 771.121094 452.1875 771.121094 531.910156 C 771.121094 576.367188 765.699219 621.277344 739.492188 664.828125 C 726.535156 686.378906 688.277344 722.851562 688.277344 722.851562 Z M 534.335938 387.238281 C 520.175781 382.414062 490.953125 428.980469 517.3125 422.5 C 543.824219 416.019531 548.496094 392.058594 534.335938 387.238281 Z M 534.335938 387.238281 " fill-opacity="1" fill-rule="nonzero"/><path fill="#ef5454" d="M 720.359375 230.808594 C 720.359375 230.808594 747.324219 349.5625 681.5 428.527344 C 706.957031 463.339844 697.765625 608.164062 505.113281 655.035156 C 342.585938 701.300781 186.683594 671.160156 99.921875 589.78125 C 112.878906 619.167969 133.964844 660.460938 161.078125 686.679688 C 129.898438 668.445312 90.433594 630.621094 75.371094 588.121094 C 78.535156 626.550781 102.03125 684.570312 158.214844 722.398438 C 245.730469 722.546875 627.121094 722.398438 627.121094 722.398438 C 627.121094 722.398438 736.476562 669.050781 764.195312 573.957031 C 781.96875 465.753906 736.328125 401.402344 736.328125 401.402344 C 736.328125 401.402344 747.324219 336.601562 743.707031 301.335938 C 739.492188 263.511719 720.359375 230.808594 720.359375 230.808594 Z M 610.25 673.269531 C 596.09375 680.351562 597.449219 658.046875 610.25 655.335938 C 623.054688 652.773438 624.410156 666.488281 610.25 673.269531 Z M 610.25 673.269531 " fill-opacity="0.3" fill-rule="nonzero"/><path fill="#2b0806" d="M 179.152344 188.308594 C 134.566406 191.023438 123.121094 247.6875 121.613281 257.03125 C 121.613281 257.933594 121.613281 258.386719 121.613281 258.386719 C 121.613281 258.386719 121.613281 258.085938 121.464844 257.785156 C 121.464844 258.234375 121.3125 258.386719 121.3125 258.386719 C 121.3125 258.386719 121.3125 257.933594 121.3125 257.03125 C 119.804688 247.6875 108.960938 191.324219 63.773438 188.308594 C 108.507812 185.597656 119.957031 128.933594 121.464844 119.589844 C 121.464844 118.6875 121.464844 118.234375 121.464844 118.234375 C 121.464844 118.234375 121.464844 118.535156 121.613281 118.988281 C 121.613281 118.535156 121.765625 118.234375 121.765625 118.234375 C 121.765625 118.234375 121.765625 118.6875 121.765625 119.589844 C 123.121094 128.933594 133.964844 185.296875 179.152344 188.308594 Z M 71.003906 246.632812 C 71.003906 246.179688 71.003906 246.027344 71.003906 246.027344 C 71.003906 246.027344 71.003906 246.179688 71.003906 246.332031 C 71.003906 246.179688 71.003906 246.027344 71.003906 246.027344 C 71.003906 246.027344 71.003906 246.332031 71.003906 246.632812 C 70.097656 251.152344 64.527344 279.335938 42.382812 280.691406 C 64.675781 282.199219 70.097656 310.078125 70.851562 314.75 C 70.851562 315.203125 70.851562 315.351562 70.851562 315.351562 C 70.851562 315.351562 70.851562 315.203125 70.851562 315.050781 C 70.851562 315.203125 70.851562 315.351562 70.851562 315.351562 C 70.851562 315.351562 70.851562 315.050781 70.851562 314.75 C 71.605469 310.226562 77.328125 282.046875 99.320312 280.691406 C 77.179688 279.335938 71.90625 251.304688 71.003906 246.632812 Z M 71.003906 246.632812 " fill-opacity="1" fill-rule="nonzero"/><path fill="#efb07d" d="M 189.546875 300.734375 Z M 189.546875 300.582031 C 189.699219 300.582031 189.699219 300.582031 189.546875 300.582031 C 189.699219 300.582031 189.699219 300.582031 189.546875 300.582031 Z M 694.453125 365.082031 C 729.851562 300.132812 662.519531 167.0625 662.519531 167.0625 C 643.539062 188.761719 623.355469 272.550781 620.34375 292.144531 C 645.949219 300.28125 682.402344 323.339844 694.453125 365.082031 Z M 189.699219 300.582031 C 189.699219 300.582031 189.847656 300.433594 189.699219 300.582031 C 189.847656 300.433594 189.699219 300.582031 189.699219 300.582031 Z M 439.589844 236.082031 C 439.589844 236.082031 369.097656 129.085938 319.539062 91.105469 C 298.601562 104.066406 280.527344 120.34375 263.65625 145.511719 C 274.804688 132.097656 287.15625 121.097656 300.257812 114.617188 C 300.257812 114.617188 241.0625 179.71875 217.414062 276.621094 C 234.132812 274.8125 274.804688 277.976562 274.804688 277.976562 C 274.804688 277.976562 215.304688 280.839844 168.15625 326.503906 C 148.726562 335.246094 133.664062 343.683594 107.90625 379.550781 C 99.621094 405.320312 180.960938 521.964844 341.230469 457.011719 C 493.515625 395.222656 451.640625 239.398438 451.640625 239.398438 Z M 709.667969 612.535156 C 701.53125 611.027344 691.742188 614.796875 691.742188 614.796875 C 691.742188 614.796875 696.410156 595.355469 681.949219 592.34375 C 667.492188 589.328125 654.386719 601.082031 654.386719 601.082031 C 654.386719 601.082031 664.175781 578.328125 640.226562 574.257812 C 606.636719 568.832031 473.632812 722.699219 473.632812 722.699219 L 688.277344 722.699219 C 688.277344 722.851562 734.21875 628.960938 709.667969 612.535156 Z M 709.667969 612.535156 " fill-opacity="1" fill-rule="nonzero"/><path fill="#fcc85e" d="M 71.003906 265.769531 C 71.003906 265.621094 71.003906 265.46875 71.003906 265.46875 C 71.003906 265.46875 71.003906 265.46875 71.003906 265.769531 C 71.003906 265.46875 71.003906 265.46875 71.003906 265.46875 C 71.003906 265.46875 71.003906 265.621094 71.003906 265.769531 C 70.550781 267.730469 68.140625 280.085938 58.351562 280.691406 C 68.292969 281.445312 70.550781 293.652344 70.851562 295.609375 C 70.851562 295.761719 70.851562 295.910156 70.851562 295.910156 C 70.851562 295.910156 70.851562 295.910156 70.851562 295.761719 C 70.851562 295.910156 70.851562 295.910156 70.851562 295.910156 C 70.851562 295.910156 70.851562 295.761719 70.851562 295.609375 C 71.152344 293.652344 73.714844 281.292969 83.355469 280.691406 C 73.714844 279.9375 71.304688 267.878906 71.003906 265.769531 Z M 121.613281 230.507812 C 121.613281 230.507812 121.613281 230.355469 121.613281 230.054688 C 121.613281 230.355469 121.613281 230.507812 121.613281 230.507812 C 121.765625 230.507812 121.765625 230.207031 121.765625 229.753906 C 122.667969 224.175781 129.445312 190.117188 156.410156 188.308594 C 129.144531 186.5 122.820312 152.59375 121.765625 146.867188 C 121.765625 146.414062 121.765625 146.113281 121.765625 146.113281 C 121.765625 146.113281 121.765625 146.265625 121.765625 146.566406 C 121.765625 146.265625 121.765625 146.113281 121.765625 146.113281 C 121.765625 146.113281 121.765625 146.414062 121.765625 146.867188 C 120.859375 152.441406 114.082031 186.5 87.121094 188.308594 C 114.382812 190.117188 120.710938 224.027344 121.765625 229.753906 C 121.613281 230.207031 121.613281 230.507812 121.613281 230.507812 Z M 121.613281 230.507812 " fill-opacity="1" fill-rule="nonzero"/><path fill="#ef5454" d="M 438.535156 241.207031 C 418.351562 237.742188 378.433594 231.863281 342.132812 245.425781 C 356.746094 199.160156 320.441406 95.777344 320.441406 95.777344 C 377.53125 118.382812 447.574219 233.671875 438.535156 241.207031 Z M 698.21875 613.289062 C 698.21875 613.289062 708.160156 624.441406 683.457031 664.828125 C 658.90625 705.21875 642.335938 722.851562 642.335938 722.851562 L 681.347656 722.851562 C 681.347656 722.851562 724.429688 648.101562 720.058594 621.277344 C 715.539062 594.601562 698.21875 613.289062 698.21875 613.289062 Z M 143.757812 184.691406 C 132.460938 183.636719 118.148438 189.363281 121.011719 226.738281 C 121.3125 228.09375 121.464844 229 121.613281 229.601562 C 121.613281 230.054688 121.613281 230.355469 121.613281 230.355469 C 121.613281 230.355469 121.613281 230.207031 121.613281 229.902344 C 121.613281 230.207031 121.613281 230.355469 121.613281 230.355469 C 121.613281 230.355469 121.613281 230.054688 121.613281 229.601562 C 122.519531 224.027344 129.296875 189.96875 156.257812 188.160156 C 151.4375 188.007812 147.371094 186.804688 143.757812 184.691406 Z M 70.398438 292.898438 C 70.703125 294.253906 71.003906 295.15625 71.003906 295.609375 C 71.003906 295.761719 71.003906 295.910156 71.003906 295.910156 C 71.003906 295.910156 71.003906 295.910156 71.003906 295.761719 C 71.003906 295.910156 71.003906 295.910156 71.003906 295.910156 C 71.003906 295.910156 71.003906 295.761719 71.003906 295.609375 C 71.304688 293.652344 73.863281 281.292969 83.503906 280.691406 C 82 280.539062 80.792969 280.238281 79.589844 279.636719 C 75.523438 279.183594 69.496094 280.539062 70.398438 292.898438 Z M 70.398438 292.898438 " fill-opacity="0.3" fill-rule="nonzero"/><path fill="#2b0806" d="M 435.070312 463.644531 C 436.277344 488.359375 400.277344 503.730469 384.609375 469.371094 C 349.214844 504.785156 335.355469 463.644531 335.355469 463.644531 C 270.433594 508.851562 267.722656 621.277344 375.722656 621.277344 C 491.558594 621.277344 479.207031 496.796875 435.070312 463.644531 Z M 610.25 296.210938 C 661.617188 314.144531 694.453125 365.234375 694.453125 365.234375 C 694.453125 365.234375 686.320312 331.777344 665.082031 313.84375 C 644.746094 296.816406 626.21875 285.8125 626.21875 285.8125 C 626.21875 285.8125 650.921875 187.253906 662.371094 167.0625 C 662.519531 167.0625 629.984375 199.011719 610.25 296.210938 Z M 724.277344 635.441406 C 728.644531 600.328125 705.148438 601.835938 697.464844 608.46875 C 704.242188 590.984375 676.980469 578.328125 662.671875 593.097656 C 665.683594 567.777344 640.828125 553.761719 603.472656 583.753906 C 569.734375 611.027344 504.210938 677.488281 465.5 722.851562 C 478.902344 722.851562 484.027344 722.851562 484.027344 722.851562 C 484.027344 722.851562 544.578125 655.789062 578.921875 621.425781 C 613.265625 587.066406 634.652344 577.273438 647.609375 585.410156 C 655.742188 590.683594 654.535156 608.316406 654.535156 608.316406 C 654.535156 608.316406 672.761719 592.644531 684.210938 599.425781 C 693.550781 604.851562 688.730469 615.398438 684.359375 625.042969 C 699.273438 610.125 717.347656 616.304688 713.28125 638.609375 C 710.269531 656.089844 687.375 702.054688 676.980469 722.546875 L 696.410156 722.546875 C 696.410156 722.546875 726.839844 697.683594 739.640625 674.171875 C 739.640625 650.664062 736.476562 654.882812 736.476562 654.882812 C 736.476562 654.882812 727.140625 669.652344 706.203125 692.558594 C 709.816406 686.53125 722.320312 650.816406 724.277344 635.441406 Z M 494.417969 382.867188 C 463.992188 413.308594 463.992188 463.039062 494.417969 493.632812 C 524.84375 524.074219 574.554688 524.074219 605.128906 493.632812 C 635.558594 463.191406 635.558594 413.457031 605.128906 382.867188 C 574.703125 352.273438 525.148438 352.273438 494.417969 382.867188 Z M 192.859375 331.777344 C 162.433594 362.21875 162.433594 411.953125 192.859375 442.542969 C 223.289062 472.984375 272.996094 472.984375 303.574219 442.542969 C 334.148438 412.101562 334 362.371094 303.574219 331.777344 C 273.144531 301.1875 223.289062 301.335938 192.859375 331.777344 Z M 743.105469 400.046875 C 775.191406 288.675781 704.695312 155.609375 704.695312 155.609375 C 697.316406 140.6875 688.429688 125.46875 677.582031 111.152344 C 664.175781 109.945312 593.382812 171.429688 521.382812 246.78125 C 521.382812 246.78125 489.148438 235.933594 447.574219 233.671875 C 436.125 208.050781 396.210938 142.949219 320.894531 85.378906 C 305.078125 87.640625 223.738281 155.910156 187.890625 298.324219 C 119.203125 334.941406 40.273438 433.953125 61.210938 559.1875 C 62.71875 567.777344 66.03125 580.585938 68.441406 588.273438 L 61.964844 590.835938 C 61.964844 590.835938 9.394531 614.496094 41.628906 669.804688 C 73.863281 725.109375 77.179688 723 77.179688 723 L 91.335938 723 C 91.335938 723 50.515625 674.625 44.945312 639.964844 C 40.878906 615.398438 60.761719 604.246094 70.851562 600.78125 C 121.011719 702.808594 215.90625 723.152344 215.90625 723.152344 L 253.5625 723.152344 C 253.5625 723.152344 95.855469 686.832031 74.46875 555.269531 C 67.085938 509.757812 75.671875 466.203125 88.777344 430.488281 C 88.777344 430.640625 88.777344 430.789062 88.777344 430.789062 C 136.675781 319.722656 239.105469 285.210938 239.105469 285.210938 C 225.246094 285.363281 211.839844 287.925781 199.640625 292.445312 C 217.5625 227.792969 256.726562 150.785156 320.59375 95.929688 C 362.167969 127.125 416.394531 205.941406 432.359375 233.371094 C 419.253906 233.371094 405.246094 234.425781 391.390625 236.988281 C 392.140625 240.753906 487.792969 251.90625 524.695312 258.6875 C 551.65625 230.65625 626.367188 155.910156 672.613281 123.359375 C 699.121094 161.03125 715.691406 218.902344 725.484375 255.523438 C 728.496094 268.9375 730.605469 281.445312 732.261719 293.199219 C 735.425781 324.996094 733.765625 362.070312 728.195312 402.003906 C 732.410156 406.375 736.628906 413.761719 738.585938 417.378906 C 738.738281 417.679688 738.886719 417.828125 738.886719 418.128906 C 747.625 435.160156 759.074219 467.710938 762.386719 524.226562 C 768.710938 631.824219 720.511719 677.1875 720.511719 677.1875 C 720.511719 677.1875 725.179688 696.777344 712.980469 708.535156 C 800.644531 621.277344 789.953125 476.753906 743.105469 400.046875 Z M 743.105469 400.046875 " fill-opacity="1" fill-rule="nonzero"/><path fill="#ef5454" d="M 376.628906 605.605469 C 341.230469 605.605469 319.992188 591.289062 310.351562 571.546875 C 369.246094 505.238281 445.617188 526.785156 451.339844 528.292969 C 454.652344 565.515625 437.332031 605.605469 376.628906 605.605469 Z M 376.628906 605.605469 C 341.230469 605.605469 319.992188 591.289062 310.351562 571.546875 C 369.246094 505.238281 445.617188 526.785156 451.339844 528.292969 C 454.652344 565.515625 437.332031 605.605469 376.628906 605.605469 Z M 376.628906 605.605469 " fill-opacity="1" fill-rule="nonzero"/><path fill="#ffffff" d="M 204.160156 356.34375 C 200.390625 342.628906 241.515625 318.96875 251.304688 332.078125 C 268.324219 354.683594 208.976562 374.125 204.160156 356.34375 Z M 302.96875 371.5625 C 299.355469 353.027344 274.652344 349.863281 255.222656 369.152344 C 235.789062 388.292969 207.019531 380.757812 197.378906 391.457031 C 187.4375 402.15625 204.460938 447.367188 244.828125 447.367188 C 278.71875 447.367188 312.910156 423.855469 302.96875 371.5625 Z M 505.867188 406.828125 C 502.101562 393.113281 543.222656 369.453125 553.011719 382.566406 C 570.035156 405.019531 510.6875 424.460938 505.867188 406.828125 Z M 604.679688 422.050781 C 601.0625 403.511719 576.359375 400.347656 556.929688 419.636719 C 537.5 438.777344 508.726562 431.242188 499.089844 441.941406 C 489.148438 452.640625 506.167969 497.851562 546.535156 497.851562 C 580.277344 497.851562 614.621094 474.34375 604.679688 422.050781 Z M 604.679688 422.050781 " fill-opacity="1" fill-rule="nonzero"/></svg>